# xmcd
#
# Track frame offsets: 
#        150
#        17143
#        40088
#        64554
#        92756
#        121858
#        143401
#        168003
#        200555
#        240983
#
# Disc length: 3438 seconds
#
# Revision: 0
# Processed by: cddbd v1.5.2PL0 Copyright (c) Steve Scherf et al.
# Submitted via: ExactAudioCopy v0.99pb3
#
DISCID=720d6c0a
DTITLE=Maps Of The Heart - Drawn To Light
DYEAR=2006
DGENRE=Unlabel
TTITLE0=Things We've Always Known
TTITLE1=MLB
TTITLE2=Duscza
TTITLE3=Bodyhead
TTITLE4=Minding The Mind
TTITLE5=Skating Away
TTITLE6=Comedown
TTITLE7=Don't Doom
TTITLE8=Still, Here
TTITLE9=Forged In Forgue
EXTD=
EXTT0=
EXTT1=
EXTT2=
EXTT3=
EXTT4=
EXTT5=
EXTT6=
EXTT7=
EXTT8=
EXTT9=
PLAYORDER=
